HIERARCHY
ROOT Hips
{
	OFFSET 0.00000 0.00000 0.00000
	CHANNELS 6 Xposition Yposition Zposition Zrotation Yrotation Xrotation 
	JOINT LHipJoint
	{
		OFFSET 0 0 0
		CHANNELS 3 Zrotation Yrotation Xrotation
		JOINT LeftUpLeg
		{
			OFFSET 1.35324 -1.81393 0.86676
			CHANNELS 3 Zrotation Yrotation Xrotation
			JOINT LeftLeg
			{
				OFFSET 2.44396 -6.71474 0.00000
				CHANNELS 3 Zrotation Yrotation Xrotation
				JOINT LeftFoot
				{
					OFFSET 2.78389 -7.64869 0.00000
					CHANNELS 3 Zrotation Yrotation Xrotation
					JOINT LeftToeBase
					{
						OFFSET 0.15837 -0.43512 1.94704
						CHANNELS 3 Zrotation Yrotation Xrotation
						End Site
						{
							OFFSET 0.00000 -0.00000 1.00735
						}
					}
				}
			}
		}
	}
	JOINT RHipJoint
	{
		OFFSET 0 0 0
		CHANNELS 3 Zrotation Yrotation Xrotation
		JOINT RightUpLeg
		{
			OFFSET -1.14956 -1.81393 0.86676
			CHANNELS 3 Zrotation Yrotation Xrotation
			JOINT RightLeg
			{
				OFFSET -2.55632 -7.02343 0.00000
				CHANNELS 3 Zrotation Yrotation Xrotation
				JOINT RightFoot
				{
					OFFSET -2.63038 -7.22691 0.00000
					CHANNELS 3 Zrotation Yrotation Xrotation
					JOINT RightToeBase
					{
						OFFSET -0.22277 -0.61205 2.06087
						CHANNELS 3 Zrotation Yrotation Xrotation
						End Site
						{
							OFFSET -0.00000 -0.00000 1.07867
						}
					}
				}
			}
		}
	}
	JOINT LowerBack
	{
		OFFSET 0 0 0
		CHANNELS 3 Zrotation Yrotation Xrotation
		JOINT Spine
		{
			OFFSET -0.05682 2.18266 -0.21665
			CHANNELS 3 Zrotation Yrotation Xrotation
			JOINT Spine1
			{
				OFFSET 0.08791 2.18267 0.00700
				CHANNELS 3 Zrotation Yrotation Xrotation
				JOINT Neck
				{
					OFFSET 0 0 0
					CHANNELS 3 Zrotation Yrotation Xrotation
					JOINT Neck1
					{
						OFFSET -0.14851 1.58495 0.25390
						CHANNELS 3 Zrotation Yrotation Xrotation
						JOINT Head
						{
							OFFSET 0.13566 1.62237 -0.28476
							CHANNELS 3 Zrotation Yrotation Xrotation
							End Site
							{
								OFFSET 0.05601 1.65818 -0.12921
							}
						}
					}
				}
				JOINT LeftShoulder
				{
					OFFSET 0 0 0
					CHANNELS 3 Zrotation Yrotation Xrotation
					JOINT LeftArm
					{
						OFFSET 3.23337 0.97114 -0.51072
						CHANNELS 3 Zrotation Yrotation Xrotation
						JOINT LeftForeArm
						{
							OFFSET 5.19964 -0.00068 -0.00051
							CHANNELS 3 Zrotation Yrotation Xrotation
							JOINT LeftHand
							{
								OFFSET 3.32189 -0.00000 0.00000
								CHANNELS 3 Zrotation Yrotation Xrotation
								JOINT LeftFingerBase
								{
									OFFSET 0 0 0
									CHANNELS 3 Zrotation Yrotation Xrotation
									JOINT LeftHandIndex1
									{
										OFFSET 0.64562 -0.00000 0.00000
										CHANNELS 3 Zrotation Yrotation Xrotation
										End Site
										{
											OFFSET 0.52051 -0.00000 0.00000
										}
									}
								}
								JOINT LThumb
								{
									OFFSET 0 0 0
									CHANNELS 3 Zrotation Yrotation Xrotation
									End Site
									{
										OFFSET 0.52846 -0.00000 0.52846
									}
								}
							}
						}
					}
				}
				JOINT RightShoulder
				{
					OFFSET 0 0 0
					CHANNELS 3 Zrotation Yrotation Xrotation
					JOINT RightArm
					{
						OFFSET -2.95712 1.24697 -0.52388
						CHANNELS 3 Zrotation Yrotation Xrotation
						JOINT RightForeArm
						{
							OFFSET -5.65950 -0.00000 -0.00000
							CHANNELS 3 Zrotation Yrotation Xrotation
							JOINT RightHand
							{
								OFFSET -3.37604 -0.00000 -0.00000
								CHANNELS 3 Zrotation Yrotation Xrotation
								JOINT RightFingerBase
								{
									OFFSET 0 0 0
									CHANNELS 3 Zrotation Yrotation Xrotation
									JOINT RightHandIndex1
									{
										OFFSET -0.82470 -0.00000 -0.00000
										CHANNELS 3 Zrotation Yrotation Xrotation
										End Site
										{
											OFFSET -0.66490 -0.00000 -0.00000
										}
									}
								}
								JOINT RThumb
								{
									OFFSET 0 0 0
									CHANNELS 3 Zrotation Yrotation Xrotation
									End Site
									{
										OFFSET -0.67505 -0.00000 0.67505
									}
								}
							}
						}
					}
				}
			}
		}
	}
}
MOTION
Frames: 10
Frame Time: .0083333
6.8264 16.0786 -12.4145 -17.5663 -40.8369 26.5685 0.0000 0.0000 0.0000 -10.4020 1.8565 -36.0083 18.3836 19.9372 85.2693 1.1377 0.6722 -20.4151 0.0118 -0.7018 -1.9287 0.0000 0.0000 0.0000 23.8046 10.7960 -34.5955 -13.3006 -18.8880 70.0565 -2.1357 2.6565 -26.9574 -0.5809 4.8804 -13.5677 1.4703 -0.9583 12.9911 6.7097 -0.8527 2.5797 6.4298 -0.4670 -4.4861 -10.7394 -1.5866 -14.1181 13.3723 -3.2862 24.4132 6.2616 -1.0773 10.5017 0.0000 0.0000 0.0000 -57.6913 -15.1332 -24.8949 12.4679 -20.5026 -2.2635 -0.0000 -0.0000 13.5719 7.0305 31.5917 3.6965 -7.1250 0.0000 -0.0000 -28.2087 59.4764 -10.4815 0.0000 0.0000 0.0000 73.0492 10.0226 15.7822 -29.2009 40.1985 -10.8901 0.0000 -0.0000 -16.0347 -19.7295 19.0728 -6.6840 7.1250 -0.0000 -0.0000 5.5087 -9.8850 4.5026
6.7620 16.0512 -12.3006 -17.6395 -40.2064 26.9382 0.0000 0.0000 0.0000 -9.6832 1.7046 -38.8441 19.1337 19.9820 87.4665 1.2222 -1.0583 -20.5804 0.0004 0.1342 0.3686 0.0000 0.0000 0.0000 24.0778 10.2787 -34.3138 -13.1913 -18.8501 69.7186 -2.2217 3.1436 -27.4096 -0.4818 4.4512 -12.3495 1.5553 -0.9944 13.1249 6.9043 -0.8534 2.3251 6.6081 -0.4597 -4.8278 -11.1697 -1.6577 -13.9785 13.7586 -3.3894 24.3695 6.4704 -1.1276 10.4858 -0.0000 0.0000 0.0000 -56.8209 -14.1561 -25.5894 12.7302 -20.8907 -2.3562 -0.0000 -0.0000 13.3225 6.4957 31.9409 3.4471 -7.1250 0.0000 -0.0000 -29.0590 59.6566 -10.9579 -0.0000 0.0000 0.0000 72.3799 10.7307 16.8499 -30.0676 40.9513 -11.4539 0.0000 -0.0000 -15.9760 -20.1729 18.7732 -6.7431 7.1250 -0.0000 -0.0000 5.2012 -10.1385 4.2223
6.6926 16.0371 -12.1753 -17.6119 -39.7814 27.2348 0.0000 0.0000 0.0000 -9.2494 1.7185 -41.9069 19.7794 19.9988 89.3550 1.2074 -1.8847 -20.2342 0.0000 0.0231 0.0634 0.0000 0.0000 0.0000 24.2276 9.8843 -33.7851 -12.9710 -18.7717 69.0353 -2.2855 3.3835 -27.7671 -0.3236 3.6562 -10.1114 1.6603 -0.8387 12.9988 6.9028 -0.6299 2.2317 6.5056 -0.3475 -4.8814 -11.1732 -1.9187 -14.2356 14.0258 -3.8056 24.3688 6.5247 -1.2806 10.6073 0.0000 0.0000 0.0000 -55.5396 -13.6905 -25.8724 12.8452 -21.0599 -2.3974 -0.0000 -0.0000 13.0518 5.8414 32.6860 3.1623 -7.1250 0.0000 -0.0000 -30.4080 60.1436 -11.8831 0.0000 0.0000 0.0000 71.8600 11.4695 17.3218 -31.1430 41.8532 -12.1652 0.0000 -0.0000 -15.9538 -20.3468 18.5756 -6.7373 7.1250 -0.0000 -0.0000 5.0751 -10.3217 4.1002
6.6184 16.0346 -12.0210 -17.7554 -39.2954 27.4466 0.0000 0.0000 0.0000 -8.7368 1.7425 -44.7229 20.2923 19.9980 90.8545 1.1563 -2.5636 -19.6355 0.0001 -0.0586 -0.1610 0.0000 0.0000 0.0000 24.5644 9.2704 -32.7961 -12.6256 -18.6428 67.9586 -2.3651 3.3750 -28.2680 -0.2779 3.3909 -9.3690 2.2242 -0.6645 12.6624 6.7567 -0.3616 2.4006 5.9585 -0.2290 -4.5478 -10.9554 -2.3338 -14.6298 14.3322 -4.4737 24.1560 6.5095 -1.5173 10.7178 -0.0000 -0.0000 0.0000 -53.8608 -13.6101 -26.0584 12.7844 -20.9706 -2.3756 -0.0000 -0.0000 13.1446 5.7557 33.0255 3.1444 -7.1250 0.0000 -0.0000 -30.8208 60.4119 -12.2625 -0.0000 -0.0000 0.0000 71.5863 12.5047 17.0423 -32.0674 42.6008 -12.7864 0.0000 -0.0000 -15.1412 -20.2082 19.0625 -6.8551 7.1250 -0.0000 -0.0000 5.1970 -9.8316 4.2513
6.5322 16.0622 -11.8329 -17.9087 -38.9400 27.4572 0.0000 0.0000 0.0000 -8.3992 1.7717 -47.0347 20.6114 19.9910 91.7878 1.0962 -3.0330 -19.0105 0.0025 -0.3235 -0.8888 0.0000 0.0000 0.0000 24.8478 8.4014 -31.2684 -12.1492 -18.4530 66.4610 -2.4738 3.9090 -28.8340 -0.2549 3.2485 -8.9714 2.7149 -0.4275 12.4686 6.6775 -0.0086 2.5197 5.5242 -0.0637 -4.3454 -11.0363 -2.7417 -14.4283 14.6690 -5.0967 23.7587 6.5482 -1.7796 10.6431 -0.0000 0.0000 0.0000 -52.5895 -13.2734 -26.1508 12.8851 -21.1186 -2.4117 -0.0000 -0.0000 13.1269 5.9463 33.0645 3.2524 -7.1250 0.0000 -0.0000 -30.6672 60.4902 -12.2522 -0.0000 0.0000 0.0000 71.0949 13.0848 17.0888 -33.5037 43.7136 -13.7689 0.0000 -0.0000 -15.2562 -20.3698 18.8231 -6.8314 7.1250 -0.0000 -0.0000 5.0761 -10.0599 4.1281
6.4427 16.1030 -11.6429 -18.0115 -38.5992 27.4627 0.0000 0.0000 0.0000 -8.1823 1.7965 -49.2414 20.7791 19.9854 92.2786 1.0756 -3.3472 -18.7707 0.0164 -0.8259 -2.2700 0.0000 0.0000 0.0000 25.1735 7.4808 -29.7527 -11.5890 -18.2114 64.6798 -2.5565 3.8307 -29.3483 -0.3954 4.0373 -11.1816 2.8160 -0.2438 12.5971 6.7932 0.2774 2.3438 5.5521 0.0800 -4.6244 -11.2850 -2.9681 -13.9507 14.7962 -5.4222 23.6411 6.5895 -1.9552 10.5673 0.0000 -0.0000 0.0000 -51.7952 -12.3838 -26.5522 13.0528 -21.3646 -2.4725 -0.0000 -0.0000 12.9741 5.8812 33.1355 3.2227 -7.1250 0.0000 -0.0000 -30.8021 60.5350 -12.3454 0.0000 -0.0000 0.0000 70.3448 13.2242 17.5844 -35.1778 44.9387 -14.9388 0.0000 -0.0000 -15.3373 -20.2976 18.7529 -6.7810 7.1250 -0.0000 -0.0000 5.1187 -10.1430 4.1543
6.3578 16.1255 -11.4653 -18.3337 -38.0704 27.6429 0.0000 0.0000 0.0000 -7.6940 1.9483 -51.6252 20.8834 19.9813 92.5836 1.0868 -3.6050 -18.8318 0.0449 -1.3679 -3.7616 0.0000 0.0000 0.0000 25.6641 7.0329 -27.9433 -10.9972 -17.9337 62.7726 -2.6551 5.4330 -29.6702 -0.0469 1.3977 -3.8438 2.9394 -0.1275 12.8322 7.0846 0.5003 2.0735 5.7727 0.1932 -5.0601 -11.3545 -3.1562 -13.8013 14.6145 -5.6741 23.9160 6.5118 -2.1006 10.6750 -0.0000 -0.0000 0.0000 -51.3240 -11.2346 -27.1262 13.2447 -21.6447 -2.5428 -0.0000 -0.0000 12.9569 5.9892 32.9154 3.2629 -7.1250 0.0000 -0.0000 -30.4795 60.3737 -12.0833 -0.0000 -0.0000 0.0000 69.5207 13.3696 18.2348 -36.9222 46.1369 -16.1839 0.0000 -0.0000 -15.3284 -20.4218 18.6312 -6.7835 7.1250 -0.0000 -0.0000 5.0298 -10.2536 4.0703
6.2709 16.1610 -11.2782 -18.6779 -37.5291 27.7610 0.0000 0.0000 0.0000 -7.1797 2.0697 -53.8601 20.8522 19.9826 92.4923 1.0977 -3.8419 -18.8953 0.0774 -1.7950 -4.9395 0.0000 0.0000 0.0000 26.2718 6.4736 -26.1117 -10.3584 -17.6065 60.6798 -2.4188 0.2847 -29.3874 -2.0014 8.8690 -25.3863 3.2059 0.0585 12.8867 7.3293 0.8085 1.9530 5.8376 0.3425 -5.2433 -11.5865 -3.4526 -13.6009 14.6965 -6.0910 23.9888 6.5323 -2.3104 10.7397 -0.0000 0.0000 0.0000 -51.0631 -10.1564 -27.3262 13.6780 -22.2725 -2.7049 -0.0000 -0.0000 12.8487 6.1298 32.7213 3.3225 -7.1250 0.0000 -0.0000 -30.1520 60.2415 -11.8430 -0.0000 0.0000 0.0000 68.7656 13.6560 18.3120 -38.5802 47.2059 -17.3901 0.0000 -0.0000 -15.0275 -20.6056 18.6787 -6.8662 7.1250 -0.0000 -0.0000 4.9130 -10.1792 3.9825
6.1849 16.2168 -11.0906 -18.9423 -36.9632 27.8539 0.0000 0.0000 0.0000 -6.6172 1.9454 -56.1950 20.6802 19.9889 91.9891 1.1061 -4.3844 -18.9026 0.0819 -1.8455 -5.0789 0.0000 0.0000 0.0000 27.3116 5.1734 -25.1281 -9.6725 -17.2215 58.3880 -1.9689 -4.8226 -28.5864 -3.6246 11.6434 -34.4817 3.4570 0.2779 12.8974 7.4364 1.1397 1.9567 5.7525 0.5012 -5.2689 -11.8942 -3.8372 -13.2545 15.1146 -6.6772 23.7033 6.6549 -2.5765 10.6893 0.0000 0.0000 0.0000 -50.5079 -9.2201 -26.9148 14.3760 -23.2697 -2.9750 -0.0000 -0.0000 11.8441 6.1035 33.3185 3.3615 -7.1250 0.0000 -0.0000 -30.7584 60.7432 -12.4797 0.0000 0.0000 0.0000 68.2266 14.1312 18.0540 -40.2982 48.2456 -18.6614 0.0000 -0.0000 -14.5788 -20.2246 19.3106 -6.9462 7.1250 -0.0000 -0.0000 5.2030 -9.5703 4.2837
6.0885 16.2761 -10.8783 -19.3542 -36.5433 27.9728 0.0000 0.0000 0.0000 -6.0925 1.9749 -58.1913 20.3699 19.9967 91.0816 1.1599 -5.0090 -19.3116 0.0468 -1.3964 -3.8403 0.0000 0.0000 0.0000 27.5189 5.4536 -22.1934 -8.9645 -16.7848 55.9674 -2.4907 1.6298 -29.4454 -0.6592 5.1930 -14.4597 3.7960 0.5419 12.7115 7.4632 1.5053 2.1210 5.5185 0.6731 -5.0105 -11.4504 -4.2408 -13.8711 15.1817 -7.3489 23.8828 6.5144 -2.8089 10.9810 0.0000 -0.0000 0.0000 -49.4733 -8.6910 -26.7678 14.8873 -23.9889 -3.1800 -0.0000 -0.0000 10.4553 6.1514 34.1549 3.4627 -7.1250 0.0000 -0.0000 -31.5591 61.4602 -13.3839 0.0000 -0.0000 0.0000 67.7532 14.6397 17.9733 -42.3609 49.4081 -20.2142 0.0000 -0.0000 -14.6075 -19.8619 19.8232 -6.9842 7.1250 -0.0000 -0.0000 5.4720 -9.0861 4.5606
